ffmpeg started on 2025-05-28 at 20:38:45
Report written to "D:\Convert\FFMetrics\reports\ssim_report-6.txt"
Log level: 32
Command line:
ffmpeg -hide_banner -nostdin -i "G:\\\xc0\xed\xe8\xec\xe5\\\xce\xed\xe3\xee\xe8\xed\xe3\xe8\\!_36_\xce\xf1\xe5\xed\xfc_2024\\JamClub\\\xc8\xf1\xf2\xee\xf0\xe8\xff \xee \xf2\xee\xec, \xea\xe0\xea \xff \xef\xf0\xe8\xf8\xb8\xeb \xed\xe0 \xe2\xe5\xf7\xe5\xf0\xe8\xed\xea\xf3, \xe0 \xf2\xe0\xec \xed\xe5 \xe1\xfb\xeb\xee \xed\xe8 \xee\xe4\xed\xee\xe9 \xe6\xe5\xed\xf9\xe8\xed\xfb\\JamClub_Goukon_ni_Ittara_Onna_ga_Inakatta_Hanashi_05_1080p_HEVC.mkv" -i "G:\\\xc0\xed\xe8\xec\xe5\\\xce\xed\xe3\xee\xe8\xed\xe3\xe8\\!_36_\xce\xf1\xe5\xed\xfc_2024\\JamClub\\\xc8\xf1\xf2\xee\xf0\xe8\xff \xee \xf2\xee\xec, \xea\xe0\xea \xff \xef\xf0\xe8\xf8\xb8\xeb \xed\xe0 \xe2\xe5\xf7\xe5\xf0\xe8\xed\xea\xf3, \xe0 \xf2\xe0\xec \xed\xe5 \xe1\xfb\xeb\xee \xed\xe8 \xee\xe4\xed\xee\xe9 \xe6\xe5\xed\xf9\xe8\xed\xfb\\JamClub_Goukon_ni_Ittara_Onna_ga_Inakatta_Hanashi_05_1080p.mp4" -lavfi "[0:v]settb=AVTB,setpts=PTS-STARTPTS,format=pix_fmts=yuv420p10,fps=24000/1001,scale=1920:1080:flags=bicubic[main];[1:v]settb=AVTB,setpts=PTS-STARTPTS,format=pix_fmts=yuv420p,fps=24000/1001,scale=1920:1080:flags=bicubic[ref];[main][ref]ssim=eof_action=endall:stats_file='D\\:/Convert/FFMetrics/logs/ssim_logfile-6.txt'" -f null -
Input #0, matroska,webm, from 'G:\Аниме\Онгоинги\!_36_Осень_2024\JamClub\История о том, как я пришёл на вечеринку, а там не было ни одной женщины\JamClub_Goukon_ni_Ittara_Onna_ga_Inakatta_Hanashi_05_1080p_HEVC.mkv':
  Metadata:
    COMPATIBLE_BRANDS: isomiso2avc1mp41
    MAJOR_BRAND     : isom
    MINOR_VERSION   : 512
    ENCODER         : Lavf61.7.100
  Duration: 00:24:03.69, start: -0.001000, bitrate: 898 kb/s
  Stream #0:0: Video: hevc (Main 10), yuv420p10le(tv, bt709, progressive), 1920x1080 [SAR 1:1 DAR 16:9], 23.98 fps, 23.98 tbr, 1k tbn (default)
      Metadata:
        HANDLER_NAME    : VideoHandler
        VENDOR_ID       : [0][0][0][0]
        ENCODER         : Lavc61.19.100 libx265
        BPS             : 701083
        DURATION        : 00:24:03.650708333
        NUMBER_OF_FRAMES: 34613
        NUMBER_OF_BYTES : 126514951
        _STATISTICS_WRITING_APP: mkvpropedit v66.0.0 ('Josie') 64-bit
        _STATISTICS_WRITING_DATE_UTC: 2025-05-28 10:14:06
        _STATISTICS_TAGS: BPS DURATION NUMBER_OF_FRAMES NUMBER_OF_BYTES
  Stream #0:1(eng): Audio: aac (LC), 48000 Hz, stereo, fltp (default)
      Metadata:
        HANDLER_NAME    : SoundHandler
        VENDOR_ID       : [0][0][0][0]
        ENCODER         : Lavc61.19.100 aac
        BPS             : 193397
        DURATION        : 00:24:03.651000000
        NUMBER_OF_FRAMES: 67672
        NUMBER_OF_BYTES : 34899812
        _STATISTICS_WRITING_APP: mkvpropedit v66.0.0 ('Josie') 64-bit
        _STATISTICS_WRITING_DATE_UTC: 2025-05-28 10:14:06
        _STATISTICS_TAGS: BPS DURATION NUMBER_OF_FRAMES NUMBER_OF_BYTES
Input #1, mov,mp4,m4a,3gp,3g2,mj2, from 'G:\Аниме\Онгоинги\!_36_Осень_2024\JamClub\История о том, как я пришёл на вечеринку, а там не было ни одной женщины\JamClub_Goukon_ni_Ittara_Onna_ga_Inakatta_Hanashi_05_1080p.mp4':
  Metadata:
    major_brand     : isom
    minor_version   : 512
    compatible_brands: isomiso2avc1mp41
    encoder         : Lavf60.16.100
  Duration: 00:24:03.67, start: 0.000000, bitrate: 2944 kb/s
  Stream #1:0[0x1](und): Video: h264 (High) (avc1 / 0x31637661), yuv420p(progressive), 1920x1080 [SAR 1:1 DAR 16:9], 2746 kb/s, 23.98 fps, 23.98 tbr, 90k tbn (default)
      Metadata:
        handler_name    : VideoHandler
        vendor_id       : [0][0][0][0]
  Stream #1:1[0x2](eng): Audio: aac (LC) (mp4a / 0x6134706D), 48000 Hz, stereo, fltp, 191 kb/s (default)
      Metadata:
        handler_name    : SoundHandler
        vendor_id       : [0][0][0][0]
Stream mapping:
  Stream #0:0 (hevc) -> settb:default
  Stream #1:0 (h264) -> settb:default
  ssim:default -> Stream #0:0 (wrapped_avframe)
  Stream #0:1 -> #0:1 (aac (native) -> pcm_s16le (native))
Output #0, null, to 'pipe:':
  Metadata:
    COMPATIBLE_BRANDS: isomiso2avc1mp41
    MAJOR_BRAND     : isom
    MINOR_VERSION   : 512
    encoder         : Lavf61.7.100
  Stream #0:0: Video: wrapped_avframe, yuv420p10le(tv, bt709, progressive), 1920x1080 [SAR 1:1 DAR 16:9], q=2-31, 200 kb/s, 23.98 fps, 23.98 tbn
      Metadata:
        encoder         : Lavc61.19.100 wrapped_avframe
  Stream #0:1(eng): Audio: pcm_s16le, 48000 Hz, stereo, s16, 1536 kb/s (default)
      Metadata:
        HANDLER_NAME    : SoundHandler
        VENDOR_ID       : [0][0][0][0]
        _STATISTICS_TAGS: BPS DURATION NUMBER_OF_FRAMES NUMBER_OF_BYTES
        BPS             : 193397
        DURATION        : 00:24:03.651000000
        NUMBER_OF_FRAMES: 67672
        NUMBER_OF_BYTES : 34899812
        _STATISTICS_WRITING_APP: mkvpropedit v66.0.0 ('Josie') 64-bit
        _STATISTICS_WRITING_DATE_UTC: 2025-05-28 10:14:06
        encoder         : Lavc61.19.100 pcm_s16le
frame=  113 fps=0.0 q=-0.0 size=N/A time=00:00:04.71 bitrate=N/A speed= 9.2x    frame=  270 fps=265 q=-0.0 size=N/A time=00:00:11.26 bitrate=N/A speed=  11x    frame=  476 fps=308 q=-0.0 size=N/A time=00:00:19.85 bitrate=N/A speed=12.9x    frame=  704 fps=343 q=-0.0 size=N/A time=00:00:29.36 bitrate=N/A speed=14.3x    frame=  961 fps=373 q=-0.0 size=N/A time=00:00:40.08 bitrate=N/A speed=15.6x    frame= 1200 fps=388 q=-0.0 size=N/A time=00:00:50.05 bitrate=N/A speed=16.2x    frame= 1456 fps=402 q=-0.0 size=N/A time=00:01:00.72 bitrate=N/A speed=16.8x    frame= 1742 fps=421 q=-0.0 size=N/A time=00:01:12.65 bitrate=N/A speed=17.5x    frame= 1987 fps=428 q=-0.0 size=N/A time=00:01:22.87 bitrate=N/A speed=17.8x    frame= 2191 fps=424 q=-0.0 size=N/A time=00:01:31.38 bitrate=N/A speed=17.7x    frame= 2393 fps=422 q=-0.0 size=N/A time=00:01:39.80 bitrate=N/A speed=17.6x    frame= 2655 fps=428 q=-0.0 size=N/A time=00:01:50.73 bitrate=N/A speed=17.9x    frame= 2900 fps=432 q=-0.0 size=N/A time=00:02:00.95 bitrate=N/A speed=  18x    frame= 3118 fps=431 q=-0.0 size=N/A time=00:02:10.04 bitrate=N/A speed=  18x    frame= 3328 fps=430 q=-0.0 size=N/A time=00:02:18.80 bitrate=N/A speed=17.9x    frame= 3554 fps=430 q=-0.0 size=N/A time=00:02:28.23 bitrate=N/A speed=17.9x    frame= 3810 fps=435 q=-0.0 size=N/A time=00:02:38.90 bitrate=N/A speed=18.1x    frame= 4042 fps=435 q=-0.0 size=N/A time=00:02:48.58 bitrate=N/A speed=18.1x    frame= 4294 fps=438 q=-0.0 size=N/A time=00:02:59.09 bitrate=N/A speed=18.2x    frame= 4540 fps=440 q=-0.0 size=N/A time=00:03:09.35 bitrate=N/A speed=18.3x    frame= 4792 fps=442 q=-0.0 size=N/A time=00:03:19.86 bitrate=N/A speed=18.4x    frame= 5051 fps=445 q=-0.0 size=N/A time=00:03:30.66 bitrate=N/A speed=18.6x    frame= 5306 fps=447 q=-0.0 size=N/A time=00:03:41.30 bitrate=N/A speed=18.6x    frame= 5563 fps=449 q=-0.0 size=N/A time=00:03:52.02 bitrate=N/A speed=18.7x    frame= 5798 fps=449 q=-0.0 size=N/A time=00:04:01.82 bitrate=N/A speed=18.7x    frame= 6066 fps=452 q=-0.0 size=N/A time=00:04:13.00 bitrate=N/A speed=18.9x    frame= 6350 fps=456 q=-0.0 size=N/A time=00:04:24.84 bitrate=N/A speed=  19x    frame= 6577 fps=455 q=-0.0 size=N/A time=00:04:34.31 bitrate=N/A speed=  19x    frame= 6822 fps=456 q=-0.0 size=N/A time=00:04:44.53 bitrate=N/A speed=  19x    frame= 7024 fps=454 q=-0.0 size=N/A time=00:04:52.95 bitrate=N/A speed=18.9x    frame= 7291 fps=456 q=-0.0 size=N/A time=00:05:04.09 bitrate=N/A speed=  19x    frame= 7553 fps=457 q=-0.0 size=N/A time=00:05:15.02 bitrate=N/A speed=19.1x    frame= 7802 fps=458 q=-0.0 size=N/A time=00:05:25.40 bitrate=N/A speed=19.1x    frame= 8090 fps=461 q=-0.0 size=N/A time=00:05:37.42 bitrate=N/A speed=19.2x    frame= 8364 fps=463 q=-0.0 size=N/A time=00:05:48.84 bitrate=N/A speed=19.3x    frame= 8641 fps=465 q=-0.0 size=N/A time=00:06:00.40 bitrate=N/A speed=19.4x    frame= 8888 fps=466 q=-0.0 size=N/A time=00:06:10.70 bitrate=N/A speed=19.4x    frame= 9168 fps=468 q=-0.0 size=N/A time=00:06:22.38 bitrate=N/A speed=19.5x    frame= 9443 fps=469 q=-0.0 size=N/A time=00:06:33.85 bitrate=N/A speed=19.6x    frame= 9697 fps=470 q=-0.0 size=N/A time=00:06:44.44 bitrate=N/A speed=19.6x    frame= 9952 fps=471 q=-0.0 size=N/A time=00:06:55.08 bitrate=N/A speed=19.6x    frame=10210 fps=471 q=-0.0 size=N/A time=00:07:05.84 bitrate=N/A speed=19.7x    frame=10495 fps=473 q=-0.0 size=N/A time=00:07:17.72 bitrate=N/A speed=19.7x    frame=10744 fps=473 q=-0.0 size=N/A time=00:07:28.11 bitrate=N/A speed=19.7x    frame=11016 fps=474 q=-0.0 size=N/A time=00:07:39.45 bitrate=N/A speed=19.8x    frame=11236 fps=474 q=-0.0 size=N/A time=00:07:48.63 bitrate=N/A speed=19.8x    frame=11463 fps=473 q=-0.0 size=N/A time=00:07:58.10 bitrate=N/A speed=19.7x    frame=11703 fps=473 q=-0.0 size=N/A time=00:08:08.11 bitrate=N/A speed=19.7x    frame=11938 fps=472 q=-0.0 size=N/A time=00:08:17.91 bitrate=N/A speed=19.7x    frame=12194 fps=473 q=-0.0 size=N/A time=00:08:28.59 bitrate=N/A speed=19.7x    frame=12418 fps=472 q=-0.0 size=N/A time=00:08:37.93 bitrate=N/A speed=19.7x    frame=12696 fps=473 q=-0.0 size=N/A time=00:08:49.52 bitrate=N/A speed=19.7x    frame=12960 fps=474 q=-0.0 size=N/A time=00:09:00.54 bitrate=N/A speed=19.8x    frame=13205 fps=474 q=-0.0 size=N/A time=00:09:10.75 bitrate=N/A speed=19.8x    frame=13478 fps=475 q=-0.0 size=N/A time=00:09:22.14 bitrate=N/A speed=19.8x    frame=13764 fps=477 q=-0.0 size=N/A time=00:09:34.07 bitrate=N/A speed=19.9x    frame=13952 fps=475 q=-0.0 size=N/A time=00:09:41.91 bitrate=N/A speed=19.8x    frame=14220 fps=475 q=-0.0 size=N/A time=00:09:53.09 bitrate=N/A speed=19.8x    frame=14459 fps=475 q=-0.0 size=N/A time=00:10:03.06 bitrate=N/A speed=19.8x    frame=14719 fps=476 q=-0.0 size=N/A time=00:10:13.90 bitrate=N/A speed=19.8x    frame=14947 fps=475 q=-0.0 size=N/A time=00:10:23.41 bitrate=N/A speed=19.8x    frame=15207 fps=475 q=-0.0 size=N/A time=00:10:34.25 bitrate=N/A speed=19.8x    frame=15465 fps=476 q=-0.0 size=N/A time=00:10:45.01 bitrate=N/A speed=19.9x    frame=15738 fps=477 q=-0.0 size=N/A time=00:10:56.40 bitrate=N/A speed=19.9x    frame=15993 fps=477 q=-0.0 size=N/A time=00:11:07.04 bitrate=N/A speed=19.9x    frame=16233 fps=477 q=-0.0 size=N/A time=00:11:17.05 bitrate=N/A speed=19.9x    frame=16502 fps=477 q=-0.0 size=N/A time=00:11:28.27 bitrate=N/A speed=19.9x    frame=16779 fps=478 q=-0.0 size=N/A time=00:11:39.82 bitrate=N/A speed=  20x    frame=17025 fps=478 q=-0.0 size=N/A time=00:11:50.08 bitrate=N/A speed=  20x    frame=17283 fps=479 q=-0.0 size=N/A time=00:12:00.84 bitrate=N/A speed=  20x    frame=17530 fps=479 q=-0.0 size=N/A time=00:12:11.14 bitrate=N/A speed=  20x    frame=17795 fps=479 q=-0.0 size=N/A time=00:12:22.19 bitrate=N/A speed=  20x    frame=18086 fps=480 q=-0.0 size=N/A time=00:12:34.33 bitrate=N/A speed=  20x    frame=18356 fps=481 q=-0.0 size=N/A time=00:12:45.59 bitrate=N/A speed=20.1x    frame=18623 fps=481 q=-0.0 size=N/A time=00:12:56.73 bitrate=N/A speed=20.1x    frame=18867 fps=481 q=-0.0 size=N/A time=00:13:06.91 bitrate=N/A speed=20.1x    frame=19117 fps=481 q=-0.0 size=N/A time=00:13:17.33 bitrate=N/A speed=20.1x    frame=19404 fps=482 q=-0.0 size=N/A time=00:13:29.30 bitrate=N/A speed=20.1x    frame=19665 fps=483 q=-0.0 size=N/A time=00:13:40.19 bitrate=N/A speed=20.1x    frame=19911 fps=483 q=-0.0 size=N/A time=00:13:50.45 bitrate=N/A speed=20.1x    frame=20185 fps=483 q=-0.0 size=N/A time=00:14:01.88 bitrate=N/A speed=20.2x    frame=20467 fps=484 q=-0.0 size=N/A time=00:14:13.64 bitrate=N/A speed=20.2x    frame=20728 fps=484 q=-0.0 size=N/A time=00:14:24.53 bitrate=N/A speed=20.2x    frame=20983 fps=484 q=-0.0 size=N/A time=00:14:35.16 bitrate=N/A speed=20.2x    frame=21227 fps=484 q=-0.0 size=N/A time=00:14:45.34 bitrate=N/A speed=20.2x    frame=21504 fps=485 q=-0.0 size=N/A time=00:14:56.89 bitrate=N/A speed=20.2x    frame=21782 fps=485 q=-0.0 size=N/A time=00:15:08.49 bitrate=N/A speed=20.2x    frame=22044 fps=486 q=-0.0 size=N/A time=00:15:19.41 bitrate=N/A speed=20.3x    frame=22312 fps=486 q=-0.0 size=N/A time=00:15:30.59 bitrate=N/A speed=20.3x    frame=22603 fps=487 q=-0.0 size=N/A time=00:15:42.73 bitrate=N/A speed=20.3x    frame=22876 fps=487 q=-0.0 size=N/A time=00:15:54.11 bitrate=N/A speed=20.3x    frame=23149 fps=488 q=-0.0 size=N/A time=00:16:05.50 bitrate=N/A speed=20.3x    frame=23429 fps=488 q=-0.0 size=N/A time=00:16:17.18 bitrate=N/A speed=20.4x    frame=23677 fps=488 q=-0.0 size=N/A time=00:16:27.52 bitrate=N/A speed=20.4x    frame=23956 fps=489 q=-0.0 size=N/A time=00:16:39.16 bitrate=N/A speed=20.4x    frame=24223 fps=489 q=-0.0 size=N/A time=00:16:50.30 bitrate=N/A speed=20.4x    frame=24506 fps=490 q=-0.0 size=N/A time=00:17:02.10 bitrate=N/A speed=20.4x    frame=24781 fps=490 q=-0.0 size=N/A time=00:17:13.57 bitrate=N/A speed=20.5x    frame=25064 fps=491 q=-0.0 size=N/A time=00:17:25.37 bitrate=N/A speed=20.5x    frame=25322 fps=491 q=-0.0 size=N/A time=00:17:36.13 bitrate=N/A speed=20.5x    frame=25570 fps=491 q=-0.0 size=N/A time=00:17:46.48 bitrate=N/A speed=20.5x    frame=25833 fps=491 q=-0.0 size=N/A time=00:17:57.45 bitrate=N/A speed=20.5x    frame=26100 fps=491 q=-0.0 size=N/A time=00:18:08.58 bitrate=N/A speed=20.5x    frame=26351 fps=491 q=-0.0 size=N/A time=00:18:19.05 bitrate=N/A speed=20.5x    frame=26606 fps=491 q=-0.0 size=N/A time=00:18:29.69 bitrate=N/A speed=20.5x    frame=26889 fps=492 q=-0.0 size=N/A time=00:18:41.49 bitrate=N/A speed=20.5x    frame=27155 fps=492 q=-0.0 size=N/A time=00:18:52.58 bitrate=N/A speed=20.5x    frame=27378 fps=492 q=-0.0 size=N/A time=00:19:01.89 bitrate=N/A speed=20.5x    frame=27671 fps=492 q=-0.0 size=N/A time=00:19:14.11 bitrate=N/A speed=20.5x    frame=27946 fps=493 q=-0.0 size=N/A time=00:19:25.58 bitrate=N/A speed=20.5x    frame=28206 fps=493 q=-0.0 size=N/A time=00:19:36.42 bitrate=N/A speed=20.5x    frame=28483 fps=493 q=-0.0 size=N/A time=00:19:47.97 bitrate=N/A speed=20.6x    frame=28739 fps=493 q=-0.0 size=N/A time=00:19:58.65 bitrate=N/A speed=20.6x    frame=28999 fps=493 q=-0.0 size=N/A time=00:20:09.49 bitrate=N/A speed=20.6x    frame=29288 fps=494 q=-0.0 size=N/A time=00:20:21.55 bitrate=N/A speed=20.6x    frame=29549 fps=494 q=-0.0 size=N/A time=00:20:32.43 bitrate=N/A speed=20.6x    frame=29842 fps=495 q=-0.0 size=N/A time=00:20:44.66 bitrate=N/A speed=20.6x    frame=30102 fps=495 q=-0.0 size=N/A time=00:20:55.50 bitrate=N/A speed=20.6x    frame=30389 fps=495 q=-0.0 size=N/A time=00:21:07.47 bitrate=N/A speed=20.7x    frame=30688 fps=496 q=-0.0 size=N/A time=00:21:19.94 bitrate=N/A speed=20.7x    frame=30942 fps=496 q=-0.0 size=N/A time=00:21:30.53 bitrate=N/A speed=20.7x    frame=31201 fps=496 q=-0.0 size=N/A time=00:21:41.34 bitrate=N/A speed=20.7x    frame=31448 fps=496 q=-0.0 size=N/A time=00:21:51.64 bitrate=N/A speed=20.7x    frame=31703 fps=496 q=-0.0 size=N/A time=00:22:02.27 bitrate=N/A speed=20.7x    frame=31962 fps=496 q=-0.0 size=N/A time=00:22:13.08 bitrate=N/A speed=20.7x    frame=32225 fps=496 q=-0.0 size=N/A time=00:22:24.05 bitrate=N/A speed=20.7x    frame=32451 fps=495 q=-0.0 size=N/A time=00:22:33.47 bitrate=N/A speed=20.7x    frame=32706 fps=495 q=-0.0 size=N/A time=00:22:44.11 bitrate=N/A speed=20.7x    frame=32960 fps=495 q=-0.0 size=N/A time=00:22:54.70 bitrate=N/A speed=20.7x    frame=33193 fps=495 q=-0.0 size=N/A time=00:23:04.42 bitrate=N/A speed=20.7x    frame=33392 fps=494 q=-0.0 size=N/A time=00:23:12.72 bitrate=N/A speed=20.6x    frame=33623 fps=494 q=-0.0 size=N/A time=00:23:22.35 bitrate=N/A speed=20.6x    frame=33884 fps=494 q=-0.0 size=N/A time=00:23:33.24 bitrate=N/A speed=20.6x    frame=34163 fps=494 q=-0.0 size=N/A time=00:23:44.88 bitrate=N/A speed=20.6x    frame=34419 fps=494 q=-0.0 size=N/A time=00:23:55.55 bitrate=N/A speed=20.6x    [Parsed_ssim_10 @ 000002aa1da78340] SSIM Y:0.996660 (24.762226) U:0.995683 (23.648248) V:0.995464 (23.433508) All:0.996298 (24.315316)
[out#0/null @ 000002aa1237aec0] video:14873KiB audio:270688KiB subtitle:0KiB other streams:0KiB global headers:0KiB muxing overhead: unknown
frame=34613 fps=494 q=-0.0 Lsize=N/A time=00:24:03.65 bitrate=N/A speed=20.6x    
